<svg xmlns="http://www.w3.org/2000/svg" width="170" height="170" viewBox="0 0 170 170">
<g>
<path d="M 156.09 164.67 L 151.69 167.00 L 85.59 166.91 C49.24,166.87 18.23,166.45 16.68,165.98 C12.15,164.62 7.36,160.38 5.10,155.71 C3.04,151.44 3.00,150.33 3.00,89.70 L 3.00 28.02 L 85.25 27.76 L 167.50 27.50 L 166.50 153.83 L 163.50 158.09 C161.85,160.43 158.52,163.39 156.09,164.67 ZM 81.01 119.75 C81.00,119.89 84.04,120.00 87.76,120.00 L 94.52 120.00 L 98.25 107.00 L 109.12 107.00 C116.34,107.00 120.00,107.37 120.00,108.10 C120.00,108.70 120.71,111.62 121.57,114.60 L 123.14 120.00 L 131.07 120.00 C137.09,120.00 139.00,119.67 139.00,118.64 C139.00,117.89 137.95,113.95 136.68,109.89 C135.40,105.83 131.02,91.80 126.94,78.72 L 119.53 54.93 L 110.52 55.22 L 101.52 55.50 L 91.27 87.50 C85.63,105.10 81.01,119.61 81.01,119.75 ZM 48.54 118.79 C48.86,119.74 51.16,120.00 57.23,119.79 L 65.50 119.50 L 73.23 94.00 C77.48,79.97 81.84,65.46 82.90,61.75 L 84.85 55.00 L 72.12 55.00 L 69.62 63.25 C68.24,67.79 65.45,77.35 63.40,84.50 C61.36,91.65 59.38,97.86 59.00,98.30 C58.62,98.74 56.17,91.54 53.56,82.30 C50.95,73.06 48.15,63.14 47.34,60.25 L 45.86 55.00 L 29.78 55.00 L 30.47 57.75 C31.05,60.12 47.38,115.24 48.54,118.79 ZM 115.00 137.99 L 115.00 152.07 L 121.50 151.89 C127.56,151.72 128.00,151.55 128.00,149.41 C128.00,145.81 129.85,145.57 131.76,148.93 C132.72,150.61 134.34,151.99 135.36,151.99 C136.95,152.00 137.13,151.48 136.57,148.50 C136.16,146.31 136.30,145.00 136.95,145.00 C137.53,145.00 138.00,145.87 138.00,146.93 C138.00,151.61 145.87,153.79 148.36,149.80 C149.80,147.50 148.36,146.29 145.97,147.79 C143.25,149.49 142.23,149.31 141.50,147.00 C140.17,142.81 143.84,138.53 145.36,142.50 C146.15,144.56 148.76,144.39 149.28,142.25 C149.58,140.97 150.15,141.51 151.35,144.22 C152.26,146.26 153.00,148.85 153.00,149.97 C153.00,151.11 153.66,152.00 154.50,152.00 C155.52,152.00 156.00,150.97 156.01,148.75 C156.01,146.96 156.91,144.15 158.00,142.50 C160.37,138.93 160.48,138.00 158.57,138.00 C157.78,138.00 156.85,138.90 156.50,140.00 C155.71,142.49 154.37,142.56 153.09,140.17 C152.35,138.78 150.84,138.31 146.83,138.22 C141.43,138.10 138.00,139.82 138.00,142.65 C138.00,143.39 137.53,144.00 136.96,144.00 C136.39,144.00 136.05,142.81 136.21,141.35 C136.37,139.90 135.94,138.51 135.25,138.27 C134.43,137.98 134.00,138.88 134.00,140.92 C134.00,144.79 132.61,144.88 131.04,141.11 C129.88,138.30 129.62,138.21 122.42,138.10 ZM 163.77 11.75 L 165.24 14.00 L 128.00 14.00 L 128.00 2.84 L 140.92 3.17 C153.42,3.49 153.97,3.60 158.06,6.50 C160.39,8.15 162.96,10.51 163.77,11.75 ZM 32.20 145.25 C31.93,151.48 32.07,152.00 33.95,152.00 C35.47,152.00 36.00,151.35 36.00,149.50 C36.00,148.12 36.46,147.00 37.02,147.00 C37.59,147.00 38.48,148.12 39.00,149.50 C40.35,153.04 43.44,152.91 42.55,149.35 C41.76,146.19 43.67,141.00 45.62,141.00 C46.63,141.00 47.00,142.50 47.00,146.57 C47.00,151.34 47.25,152.10 48.75,151.80 C50.04,151.55 50.53,150.42 50.61,147.48 C50.79,141.37 50.89,141.00 52.50,141.00 C53.60,141.00 54.00,142.14 54.00,145.30 C54.00,150.40 55.31,152.00 59.50,152.00 C63.92,152.00 65.00,150.39 65.00,143.80 C65.00,139.31 64.66,138.00 63.50,138.00 C62.35,138.00 62.00,139.28 62.00,143.50 C62.00,148.33 61.76,149.00 60.00,149.00 C58.24,149.00 58.00,148.33 58.00,143.50 L 58.00 138.00 L 32.50 138.50 ZM 92.29 144.95 C90.60,150.73 90.48,152.00 91.65,152.00 C92.43,152.00 93.32,151.32 93.64,150.50 C93.95,149.68 95.08,149.00 96.14,149.00 C97.20,149.00 98.32,149.68 98.64,150.50 C98.95,151.32 100.05,152.00 101.08,152.00 C102.43,152.00 102.76,151.52 102.30,150.25 C101.69,148.58 101.76,148.58 103.66,150.25 C104.88,151.32 107.28,152.00 109.83,152.00 C113.93,152.00 114.00,151.94 114.00,148.50 C114.00,145.28 113.76,145.00 111.00,145.00 C107.77,145.00 107.27,145.84 109.25,147.90 C110.26,148.95 110.12,149.13 108.50,148.84 C105.77,148.35 105.06,142.30 107.63,141.31 C108.64,140.93 109.55,141.14 109.77,141.82 C110.31,143.42 113.00,143.32 113.00,141.70 C113.00,139.70 110.84,138.00 108.30,138.00 C105.20,138.00 102.01,141.38 101.95,144.75 C101.90,147.12 101.65,146.87 100.17,143.00 C99.00,139.94 97.79,138.40 96.40,138.20 C94.64,137.95 94.04,138.94 92.29,144.95 ZM 65.38 150.46 C65.01,151.42 65.35,152.00 66.29,152.00 C67.11,152.00 68.05,151.32 68.36,150.50 C68.68,149.68 69.80,149.00 70.86,149.00 C71.92,149.00 73.05,149.68 73.36,150.50 C73.79,151.62 75.59,152.00 80.47,152.00 C85.61,152.00 87.00,151.68 87.00,150.50 C81.03,149.00 81.00,148.94 81.00,143.50 C81.00,139.28 80.65,138.00 79.50,138.00 C78.33,138.00 78.00,139.35 78.00,144.17 C78.00,151.23 77.16,151.10 74.96,143.69 C73.80,139.78 72.89,138.42 71.30,138.19 C69.50,137.93 68.93,138.74 67.57,143.40 C66.69,146.44 65.70,149.62 65.38,150.46 ZM 115.00 93.30 C115.00,93.69 112.30,94.00 109.00,94.00 C105.47,94.00 103.00,93.57 103.00,92.95 C103.00,90.95 108.36,74.00 108.99,74.00 C109.55,74.00 115.00,91.50 115.00,93.30 ZM 17.65 146.23 C19.01,151.10 19.63,152.05 21.28,151.80 C22.71,151.58 23.76,149.97 25.03,146.00 L 26.79 140.50 L 26.90 146.25 C26.99,151.30 27.24,152.00 29.00,152.00 C30.81,152.00 31.00,151.33 31.00,145.00 L 31.00 138.00 L 27.50 138.00 C25.39,138.00 23.98,138.50 23.95,139.25 C23.93,139.94 23.32,141.85 22.59,143.50 L 21.28 146.50 L 20.10 142.25 C19.40,139.73 18.33,138.00 17.46,138.00 C15.60,138.00 15.63,139.04 17.65,146.23 ZM 126.00 145.00 C126.00,148.90 125.92,149.00 122.50,149.00 C118.68,149.00 117.67,147.34 121.17,146.82 C124.37,146.35 124.72,144.00 121.58,144.00 C119.95,144.00 119.00,143.45 119.00,142.50 C119.00,141.45 120.06,141.00 122.50,141.00 C125.92,141.00 126.00,141.10 126.00,145.00 ZM 40.00 142.50 C40.00,143.33 39.11,144.00 38.00,144.00 C36.89,144.00 36.00,143.33 36.00,142.50 C36.00,141.67 36.89,141.00 38.00,141.00 C39.11,141.00 40.00,141.67 40.00,142.50 Z" fill="rgb(13,144,105)"/>
<path d="M 167.05 27.50 L 3.42 28.02 C3.59,21.51 3.81,17.96 4.10,17.15 L 5.20 14.00 L 164.94 14.00 L 167.05 17.82 ZM 166.51 152.44 L 167.02 88.09 L 166.99 151.50 ZM 156.09 164.67 C157.68,163.83 159.67,162.27 161.31,160.63 C160.27,161.75 159.15,162.76 158.11,163.49 L 153.83 166.50 L 152.63 166.50 ZM 158.17 6.54 C158.58,6.84 159.02,7.18 159.46,7.55 C158.99,7.18 158.52,6.83 158.06,6.50 C153.97,3.60 153.42,3.49 140.92,3.17 C153.46,3.49 153.96,3.59 158.17,6.54 ZM 20.57 166.24 C18.33,166.16 16.98,166.08 16.68,165.99 C14.53,165.34 12.33,164.05 10.37,162.37 C12.33,164.05 14.54,165.34 16.68,165.98 C16.98,166.07 18.33,166.16 20.57,166.24 Z" fill="rgb(83,34,85)"/>
<path d="M 0.00 0.00 L 170.00 0.00 L 159.75 0.09 C151.21,0.17 150.08,0.35 152.96,1.17 C159.88,3.16 166.32,9.11 168.18,15.25 C168.80,17.31 169.47,19.00 169.66,19.00 C169.85,19.00 170.00,14.73 170.00,9.50 L 170.00 170.00 L 0.00 170.00 ZM 163.77 11.75 C163.12,10.76 161.34,9.04 159.46,7.55 C159.02,7.18 158.58,6.84 158.17,6.54 C153.96,3.59 153.46,3.49 140.92,3.17 L 128.00 2.84 L 128.00 14.00 L 5.20 14.00 L 4.10 17.15 C3.81,17.96 3.59,21.51 3.42,28.02 L 3.00 28.02 L 3.00 89.70 C3.00,150.33 3.04,151.44 5.10,155.71 C6.21,158.00 7.93,160.19 9.93,161.99 L 9.94 161.99 C9.97,162.03 10.00,162.06 10.04,162.09 C10.15,162.18 10.26,162.28 10.37,162.37 C12.33,164.05 14.53,165.34 16.68,165.99 C16.98,166.08 18.33,166.16 20.57,166.24 L 20.57 166.24 C30.17,166.59 56.13,166.88 85.59,166.91 L 151.69 167.00 L 152.63 166.50 L 153.83 166.50 L 158.11 163.49 C159.15,162.76 160.27,161.75 161.31,160.63 C162.17,159.77 162.93,158.89 163.50,158.09 L 166.50 153.83 L 166.51 152.44 L 166.99 151.50 L 167.02 88.09 L 167.50 27.50 L 167.05 27.50 L 167.05 17.82 L 164.94 14.00 L 165.24 14.00 ZM 0.00 170.00 L 10.25 169.93 C20.45,169.87 20.48,169.86 16.10,168.49 C10.20,166.65 3.32,159.81 1.53,154.00 L 0.14 149.50 L 0.00 170.00 ZM 170.00 170.00 L 169.93 159.75 C169.87,149.55 169.86,149.52 168.49,153.90 C166.65,159.80 159.81,166.68 154.00,168.47 L 149.50 169.86 L 159.75 169.93 L 170.00 170.00 ZM 0.00 0.00 L 0.09 10.25 C0.16,18.64 0.36,19.89 1.15,17.12 C3.25,9.83 9.13,3.66 16.00,1.53 L 20.50 0.14 Z" fill="rgb(175,145,114)"/>
<path d="M 0.07 159.75 L 0.14 149.50 L 1.53 154.00 C3.32,159.81 10.20,166.65 16.10,168.49 C20.48,169.86 20.45,169.87 10.25,169.93 L 0.00 170.00 L 0.07 159.75 ZM 154.00 168.47 C159.81,166.68 166.65,159.80 168.49,153.90 C169.86,149.52 169.87,149.55 169.93,159.75 L 170.00 170.00 L 159.75 169.93 L 149.50 169.86 L 154.00 168.47 ZM 17.65 146.23 C15.63,139.04 15.60,138.00 17.46,138.00 C18.33,138.00 19.40,139.73 20.10,142.25 L 21.28 146.50 L 22.59 143.50 C23.32,141.85 23.93,139.94 23.95,139.25 C23.98,138.50 25.39,138.00 27.50,138.00 L 31.00 138.00 L 31.00 145.00 C31.00,151.33 30.81,152.00 29.00,152.00 C27.24,152.00 26.99,151.30 26.90,146.25 L 26.79 140.50 L 25.03 146.00 C23.76,149.97 22.71,151.58 21.28,151.80 C19.63,152.05 19.01,151.10 17.65,146.23 ZM 32.20 145.25 L 32.50 138.50 L 45.25 138.25 L 58.00 138.00 L 58.00 143.50 C58.00,148.33 58.24,149.00 60.00,149.00 C61.76,149.00 62.00,148.33 62.00,143.50 C62.00,139.28 62.35,138.00 63.50,138.00 C64.66,138.00 65.00,139.31 65.00,143.80 C65.00,150.39 63.92,152.00 59.50,152.00 C55.31,152.00 54.00,150.40 54.00,145.30 C54.00,142.14 53.60,141.00 52.50,141.00 C50.89,141.00 50.79,141.37 50.61,147.48 C50.53,150.42 50.04,151.55 48.75,151.80 C47.25,152.10 47.00,151.34 47.00,146.57 C47.00,142.50 46.63,141.00 45.62,141.00 C43.67,141.00 41.76,146.19 42.55,149.35 C43.44,152.91 40.35,153.04 39.00,149.50 C38.48,148.12 37.59,147.00 37.02,147.00 C36.46,147.00 36.00,148.12 36.00,149.50 C36.00,151.35 35.47,152.00 33.95,152.00 C32.07,152.00 31.93,151.48 32.20,145.25 ZM 40.00 142.50 C40.00,141.67 39.11,141.00 38.00,141.00 C36.89,141.00 36.00,141.67 36.00,142.50 C36.00,143.33 36.89,144.00 38.00,144.00 C39.11,144.00 40.00,143.33 40.00,142.50 ZM 65.38 150.46 C65.70,149.62 66.69,146.44 67.57,143.40 C68.93,138.74 69.50,137.93 71.30,138.19 C72.89,138.42 73.80,139.78 74.96,143.69 C77.16,151.10 78.00,151.23 78.00,144.17 C78.00,139.35 78.33,138.00 79.50,138.00 C80.65,138.00 81.00,139.28 81.00,143.50 C81.00,148.94 81.03,149.00 84.00,149.00 C86.00,149.00 87.00,149.50 87.00,150.50 C87.00,151.68 85.61,152.00 80.47,152.00 C75.59,152.00 73.79,151.62 73.36,150.50 C73.05,149.68 71.92,149.00 70.86,149.00 C69.80,149.00 68.68,149.68 68.36,150.50 C68.05,151.32 67.11,152.00 66.29,152.00 C65.35,152.00 65.01,151.42 65.38,150.46 ZM 92.29 144.95 C94.04,138.94 94.64,137.95 96.40,138.20 C97.79,138.40 99.00,139.94 100.17,143.00 C101.65,146.87 101.90,147.12 101.95,144.75 C102.01,141.38 105.20,138.00 108.30,138.00 C110.84,138.00 113.00,139.70 113.00,141.70 C113.00,143.32 110.31,143.42 109.77,141.82 C109.55,141.14 108.64,140.93 107.63,141.31 C105.06,142.30 105.77,148.35 108.50,148.84 C110.12,149.13 110.26,148.95 109.25,147.90 C107.27,145.84 107.77,145.00 111.00,145.00 C113.76,145.00 114.00,145.28 114.00,148.50 C114.00,151.94 113.93,152.00 109.83,152.00 C107.28,152.00 104.88,151.32 103.66,150.25 C101.76,148.58 101.69,148.58 102.30,150.25 C102.76,151.52 102.43,152.00 101.08,152.00 C100.05,152.00 98.95,151.32 98.64,150.50 C98.32,149.68 97.20,149.00 96.14,149.00 C95.08,149.00 93.95,149.68 93.64,150.50 C93.32,151.32 92.43,152.00 91.65,152.00 C90.48,152.00 90.60,150.73 92.29,144.95 ZM 115.00 145.03 L 115.00 137.99 L 122.42 138.10 C129.62,138.21 129.88,138.30 131.04,141.11 C132.61,144.88 134.00,144.79 134.00,140.92 C134.00,138.88 134.43,137.98 135.25,138.27 C135.94,138.51 136.37,139.90 136.21,141.35 C136.05,142.81 136.39,144.00 136.96,144.00 C137.53,144.00 138.00,143.39 138.00,142.65 C138.00,139.82 141.43,138.10 146.83,138.22 C150.84,138.31 152.35,138.78 153.09,140.17 C154.37,142.56 155.71,142.49 156.50,140.00 C156.85,138.90 157.78,138.00 158.57,138.00 C160.48,138.00 160.37,138.93 158.00,142.50 C156.91,144.15 156.01,146.96 156.01,148.75 C156.00,150.97 155.52,152.00 154.50,152.00 C153.66,152.00 153.00,151.11 153.00,149.97 C153.00,148.85 152.26,146.26 151.35,144.22 C150.15,141.51 149.58,140.97 149.28,142.25 C148.76,144.39 146.15,144.56 145.36,142.50 C143.84,138.53 140.17,142.81 141.50,147.00 C142.23,149.31 143.25,149.49 145.97,147.79 C148.36,146.29 149.80,147.50 148.36,149.80 C145.87,153.79 138.00,151.61 138.00,146.93 C138.00,145.87 137.53,145.00 136.95,145.00 C136.30,145.00 136.16,146.31 136.57,148.50 C137.13,151.48 136.95,152.00 135.36,151.99 C134.34,151.99 132.72,150.61 131.76,148.93 C129.85,145.57 128.00,145.81 128.00,149.41 C128.00,151.55 127.56,151.72 121.50,151.89 L 115.00 152.07 L 115.00 145.03 ZM 126.00 145.00 C126.00,141.10 125.92,141.00 122.50,141.00 C120.06,141.00 119.00,141.45 119.00,142.50 C119.00,143.45 119.95,144.00 121.58,144.00 C124.72,144.00 124.37,146.35 121.17,146.82 C117.67,147.34 118.68,149.00 122.50,149.00 C125.92,149.00 126.00,148.90 126.00,145.00 ZM 48.54 118.79 C47.38,115.24 31.05,60.12 30.47,57.75 L 29.78 55.00 L 37.82 55.00 L 45.86 55.00 L 47.34 60.25 C48.15,63.14 50.95,73.06 53.56,82.30 C56.17,91.54 58.62,98.74 59.00,98.30 C59.38,97.86 61.36,91.65 63.40,84.50 C65.45,77.35 68.24,67.79 69.62,63.25 L 72.12 55.00 L 78.48 55.00 L 84.85 55.00 L 82.90 61.75 C81.84,65.46 77.48,79.97 73.23,94.00 L 65.50 119.50 L 57.23 119.79 C51.16,120.00 48.86,119.74 48.54,118.79 ZM 81.01 119.75 C81.01,119.61 85.63,105.10 91.27,87.50 L 101.52 55.50 L 110.52 55.22 L 119.53 54.93 L 126.94 78.72 C131.02,91.80 135.40,105.83 136.68,109.89 C137.95,113.95 139.00,117.89 139.00,118.64 C139.00,119.67 137.09,120.00 131.07,120.00 L 123.14 120.00 L 121.57 114.60 C120.71,111.62 120.00,108.70 120.00,108.10 C120.00,107.37 116.34,107.00 109.12,107.00 L 98.25 107.00 L 96.39 113.50 L 94.52 120.00 L 87.76 120.00 C84.04,120.00 81.00,119.89 81.01,119.75 ZM 115.00 93.30 C115.00,91.50 109.55,74.00 108.99,74.00 C108.36,74.00 103.00,90.95 103.00,92.95 C103.00,93.57 105.47,94.00 109.00,94.00 C112.30,94.00 115.00,93.69 115.00,93.30 ZM 0.09 10.25 L 0.00 0.00 L 10.25 0.07 L 20.50 0.14 L 16.00 1.53 C9.13,3.66 3.25,9.83 1.15,17.12 C0.36,19.89 0.16,18.64 0.09,10.25 ZM 168.18 15.25 C166.32,9.11 159.88,3.16 152.96,1.17 C150.08,0.35 151.21,0.17 159.75,0.09 L 170.00 0.00 L 170.00 9.50 C170.00,14.73 169.85,19.00 169.66,19.00 C169.47,19.00 168.80,17.31 168.18,15.25 Z" fill="rgb(240,251,249)"/>
</g>
</svg>