<?xml version="1.0" encoding="UTF-8"?>
<svg version="1.1" xmlns="http://www.w3.org/2000/svg" width="1200" height="1201">
<path d="M0 0 C0.66473705 -0.00044186 1.32947411 -0.00088371 2.01435471 -0.00133896 C23.8966212 -0.00895061 45.52040316 0.57418908 67.25 3.25 C68.31048553 3.37728485 68.31048553 3.37728485 69.39239502 3.50714111 C161.39798914 14.57021082 249.36987886 47.10953391 372.25 133.25 C372.82975586 133.73065918 373.40951172 134.21131836 374.00683594 134.70654297 C381.46363807 140.89632973 388.68386101 147.30210221 395.78369141 153.89697266 C397.21425016 155.21701205 398.65970222 156.5208533 400.10546875 157.82421875 C406.07603803 163.21465174 411.86345794 168.76017484 417.5625 174.4375 C418.54911621 175.41722778 418.54911621 175.41722778 419.55566406 176.41674805 C423.40532362 180.27856545 427.06378768 184.25422743 430.62670898 188.3815918 C432.90073774 190.99899923 435.26171097 193.52533535 437.625 196.0625 C442.74000206 201.60659827 447.53724722 207.35905902 452.25 213.25 C453.16076019 214.36905814 454.07225476 215.48751888 454.984375 216.60546875 C519.49883319 296.00121867 560.90793914 391.90189619 583.4375 580.4375 C583.43689575 581.3912149 583.4362915 582.34492981 583.43566895 583.32754517 C583.28300997 672.86296563 562.45155566 761.15461644 522.25 841.25 C521.69022461 842.36681152 521.13044922 843.48362305 520.55371094 844.63427734 C491.8125906 901.67521103 453.29732453 952.16240582 408.3125 997.3125 C407.43658203 998.19309082 406.56066406 999.07368164 405.65820312 999.98095703 C400.68180891 1004.94501465 395.58301343 1009.67399852 390.25 1014.25 C388.64231627 1015.70445517 387.03760285 1017.16220895 385.4375 1018.625 C380.18819023 1023.35576093 374.75376055 1027.81997052 369.25 1032.25 C368.11686303 1033.17538408 366.98406551 1034.10118393 365.8515625 1035.02734375 C336.32126369 1059.06195916 303.96821791 1079.64085272 270.25 1097.25 C269.17927246 1097.81332031 268.10854492 1098.37664062 267.00537109 1098.95703125 C247.89659617 1108.95872942 228.33108442 1117.42019289 208.25 1125.25 C206.57043213 1125.90524658 206.57043213 1125.90524658 204.85693359 1126.57373047 C146.89507453 1148.8876431 82.42677048 1162.24310851 20.2734375 1162.453125 C18.86673959 1162.46014602 17.460042 1162.46723285 16.05334473 1162.47438049 C11.57722522 1162.49380101 7.10115738 1162.49881506 2.625 1162.5 C1.86261269 1162.50044186 1.10022537 1162.50088371 0.31473541 1162.50133896 C-22.83155589 1162.50837671 -45.76084859 1162.2013878 -68.75 1159.25 C-70.14841454 1159.07647501 -71.54685261 1158.90313959 -72.9453125 1158.72998047 C-162.22787131 1147.50471133 -248.21656299 1115.9542286 -366.99267578 1033.703125 C-369.51933367 1031.61384079 -372.07467907 1029.56028732 -374.625 1027.5 C-378.92101484 1023.98332218 -383.07063937 1020.33165718 -387.16796875 1016.5859375 C-389.27740041 1014.67755606 -391.40775953 1012.80314246 -393.5546875 1010.9375 C-397.68070044 1007.33501928 -401.69823077 1003.62780322 -405.6875 999.875 C-406.38480225 999.21943115 -407.08210449 998.5638623 -407.80053711 997.88842773 C-414.71373971 991.36943778 -421.49409324 984.82288417 -427.6796875 977.6015625 C-429.87690625 975.10585366 -432.13905211 972.68220906 -434.4152832 970.25878906 C-440.4807391 963.79751518 -446.23197792 957.18990149 -451.75 950.25 C-452.65777121 949.13323342 -453.56668852 948.01739779 -454.4765625 946.90234375 C-477.33589799 918.78662447 -497.21763146 888.5027621 -514.45507812 856.64306641 C-515.34006555 855.00757495 -516.22960189 853.37453894 -517.12304688 851.74365234 C-558.57803148 775.84236194 -580.19383308 688.95809855 -583.75 590.25 C-583.76659668 589.43789063 -583.78319336 588.62578125 -583.80029297 587.7890625 C-583.89108136 582.60627854 -583.85571915 577.43229132 -583.75 572.25 C-583.73211426 571.30882324 -583.71422852 570.36764648 -583.69580078 569.39794922 C-581.83156801 483.30305349 -561.38941269 397.29369717 -521.94433594 320.58105469 C-520.56850201 317.89575985 -519.21110988 315.20138825 -517.8515625 312.5078125 C-499.03235751 275.48218835 -475.55538079 240.95554283 -448.75 209.25 C-448.22664062 208.62754395 -447.70328125 208.00508789 -447.1640625 207.36376953 C-435.72686048 193.77483503 -423.61459966 180.94484634 -411.03955078 168.40917969 C-408.98482492 166.35986489 -406.93556897 164.30518737 -404.88671875 162.25 C-403.55500835 160.91894975 -402.22298812 159.58820939 -400.890625 158.2578125 C-400.29147278 157.65663605 -399.69232056 157.05545959 -399.07501221 156.43606567 C-394.79452985 152.17879442 -390.32682205 148.18515072 -385.75 144.25 C-384.63229541 143.27663512 -383.51501812 142.30277902 -382.3984375 141.328125 C-374.93678327 134.86481351 -367.34054972 128.62081033 -359.51123047 122.60791016 C-357.82250226 121.3058993 -356.14730407 119.98800877 -354.47265625 118.66796875 C-332.62844496 101.66976405 -308.89309352 86.72491511 -284.75 73.25 C-282.95690011 72.23069941 -281.16393034 71.21116988 -279.37109375 70.19140625 C-237.10178662 46.39760381 -190.76576594 29.01835564 -143.75 17.25 C-142.54553223 16.94755371 -141.34106445 16.64510742 -140.10009766 16.33349609 C-108.80162218 8.60064045 -76.88308321 3.7589585 -44.75 1.25 C-43.63044922 1.1557373 -42.51089844 1.06147461 -41.35742188 0.96435547 C-27.59273378 -0.06157262 -13.79598573 0.00627598 0 0 Z " fill="#004CA3" transform="translate(599.75,16.75)"/>
<path d="M0 0 C-2.63943775 3.29448069 -6.01911221 4.29544869 -9.875 5.625 C-64.49673355 25.37232706 -116.0899503 55.57122874 -162 91 C-163.43666016 92.10794922 -163.43666016 92.10794922 -164.90234375 93.23828125 C-170.08166868 97.32119301 -175.10276954 101.59497711 -180.12133789 105.87280273 C-183.47255167 108.72655922 -186.87045312 111.50566532 -190.3125 114.25 C-197.1531658 119.82167273 -203.48685961 125.92553025 -209.87988281 131.99755859 C-212.01960505 134.01851689 -214.17486274 136.02143714 -216.3359375 138.01953125 C-217.04403564 138.67614746 -217.75213379 139.33276367 -218.48168945 140.00927734 C-219.82136153 141.25070994 -221.16346107 142.48953073 -222.50854492 143.72509766 C-226.4057177 147.35011439 -229.95619272 151.14691755 -233.42163086 155.18579102 C-235.34778896 157.39975557 -237.39425222 159.45711036 -239.5 161.5 C-243.54849668 165.50767151 -247.3045513 169.66815309 -251 174 C-251.90428762 175.04093857 -252.80929531 176.08125183 -253.71484375 177.12109375 C-260.742931 185.21651994 -267.48260921 193.48893209 -274 202 C-274.56058105 202.72928711 -275.12116211 203.45857422 -275.69873047 204.20996094 C-301.39670449 237.73391401 -322.98755222 273.31803761 -342 311 C-342.45616699 311.90153809 -342.91233398 312.80307617 -343.38232422 313.73193359 C-378.4327729 383.54984002 -398.07750921 462.19061642 -403 540 C-403.04236786 540.66304138 -403.08473572 541.32608276 -403.12838745 542.00921631 C-403.9117399 554.55158073 -404.2028133 567.05944501 -404.1875 579.625 C-404.18659363 581.02113022 -404.18659363 581.02113022 -404.18566895 582.44546509 C-404.15627261 599.30372732 -403.57015808 616.03771437 -402.17712402 632.84088135 C-401.99214425 635.09576056 -401.81646088 637.3512484 -401.64160156 639.60693359 C-400.09996453 659.17644629 -397.67373255 678.45028466 -394.0625 697.75 C-393.89941345 698.62517273 -393.7363269 699.50034546 -393.56829834 700.40203857 C-385.37072427 743.91650918 -372.38494524 788.75721317 -353.09130859 828.70068359 C-351.75669651 831.51262467 -350.4658321 834.34312089 -349.17578125 837.17578125 C-341.95401078 853.0220179 -341.95401078 853.0220179 -333.9140625 868.4609375 C-332.25717132 871.45439662 -330.76369291 874.51600683 -329.26171875 877.58984375 C-325.90519509 884.33002715 -322.11274067 890.76646299 -318.1875 897.1875 C-317.82405487 897.78483948 -317.46060974 898.38217896 -317.08615112 898.99761963 C-309.17480431 911.9783294 -300.70377415 924.53660743 -292 937 C-291.49887695 937.72380859 -290.99775391 938.44761719 -290.48144531 939.19335938 C-284.46764943 947.87656647 -278.00230032 956.1492453 -271.34277344 964.34130859 C-269.54183478 966.565959 -267.77272226 968.81533548 -266 971.0625 C-255.63382348 984.0041241 -244.64625614 996.51433219 -232.82421875 1008.14453125 C-230.98610162 1010.01413647 -229.27014312 1011.94850607 -227.5625 1013.9375 C-221.98258288 1020.40513121 -215.90684045 1026.30824458 -209.421875 1031.859375 C-206.76145456 1034.21084339 -204.18202186 1036.63651918 -201.6003418 1039.07373047 C-196.12231431 1044.2423452 -190.64672383 1049.28590556 -184.6875 1053.90234375 C-182.59710216 1055.53394788 -180.54328075 1057.18981599 -178.5 1058.87890625 C-168.97192432 1066.7459919 -159.18142417 1074.17797998 -149.17333984 1081.42333984 C-147.26085451 1082.81076181 -145.35734566 1084.20927265 -143.45703125 1085.61328125 C-132.99615045 1093.28852747 -122.02196098 1100.16599428 -111 1107 C-109.52200928 1107.92425781 -109.52200928 1107.92425781 -108.01416016 1108.8671875 C-75.79852384 1128.91293442 -41.15963388 1145.89043305 -5.50854492 1158.88891602 C-3 1160 -3 1160 -2 1162 C-77.09801213 1160.44194996 -153.01348676 1141.61685955 -221 1110 C-222.73032471 1109.19755859 -222.73032471 1109.19755859 -224.49560547 1108.37890625 C-270.16651066 1087.11667178 -312.2322068 1060.13113549 -351 1028 C-351.57878906 1027.52175781 -352.15757812 1027.04351563 -352.75390625 1026.55078125 C-360.5215633 1020.11678226 -367.99534556 1013.41282952 -375.36181641 1006.52490234 C-377.01835787 1004.98291159 -378.68502748 1003.45269549 -380.35546875 1001.92578125 C-388.93428194 994.07918366 -397.40192845 986.16662628 -404.96484375 977.31640625 C-407.14797914 974.83157076 -409.39873871 972.42160319 -411.66308594 970.01098633 C-417.72950851 963.54919081 -423.48133553 956.9407094 -429 950 C-429.90777121 948.88323342 -430.81668852 947.76739779 -431.7265625 946.65234375 C-454.58589799 918.53662447 -474.46763146 888.2527621 -491.70507812 856.39306641 C-492.59006555 854.75757495 -493.47960189 853.12453894 -494.37304688 851.49365234 C-535.82803148 775.59236194 -557.44383308 688.70809855 -561 590 C-561.01659668 589.18789063 -561.03319336 588.37578125 -561.05029297 587.5390625 C-561.14108136 582.35627854 -561.10571915 577.18229132 -561 572 C-560.98211426 571.05882324 -560.96422852 570.11764648 -560.94580078 569.14794922 C-559.08156801 483.05305349 -538.63941269 397.04369717 -499.19433594 320.33105469 C-497.81850201 317.64575985 -496.46110988 314.95138825 -495.1015625 312.2578125 C-476.28235751 275.23218835 -452.80538079 240.70554283 -426 209 C-425.47664062 208.37754395 -424.95328125 207.75508789 -424.4140625 207.11376953 C-412.97686048 193.52483503 -400.86459966 180.69484634 -388.28955078 168.15917969 C-386.23482492 166.10986489 -384.18556897 164.05518737 -382.13671875 162 C-380.80500835 160.66894975 -379.47298812 159.33820939 -378.140625 158.0078125 C-377.54147278 157.40663605 -376.94232056 156.80545959 -376.32501221 156.18606567 C-372.04452985 151.92879442 -367.57682205 147.93515072 -363 144 C-361.88229541 143.02663512 -360.76501812 142.05277902 -359.6484375 141.078125 C-352.18678327 134.61481351 -344.59054972 128.37081033 -336.76123047 122.35791016 C-335.07250226 121.0558993 -333.39730407 119.73800877 -331.72265625 118.41796875 C-309.87844496 101.41976405 -286.14309352 86.47491511 -262 73 C-260.20690011 71.98069941 -258.41393034 70.96116988 -256.62109375 69.94140625 C-214.35178662 46.14760381 -168.01576594 28.76835564 -121 17 C-119.79553223 16.69755371 -118.59106445 16.39510742 -117.35009766 16.08349609 C-79.52453417 6.73800505 -39.05800654 -0.2941115 0 0 Z " fill="#4ABAE8" transform="translate(577,17)"/>
<path d="M0 0 C21.21971532 -0.04686784 42.43942202 -0.08206094 63.65917873 -0.10362434 C73.51344478 -0.11390588 83.36767852 -0.12790599 93.22192383 -0.15087891 C101.81796879 -0.17090894 110.41399034 -0.18373909 119.01005799 -0.18817699 C123.55515542 -0.1907682 128.10018593 -0.19679239 132.64526176 -0.21146011 C136.93717612 -0.22519653 141.228997 -0.22919078 145.52093124 -0.22621536 C147.08281401 -0.22675844 148.64470043 -0.23063908 150.20656395 -0.23841095 C158.21691989 -0.27626157 166.09913505 -0.02842238 174.06336975 0.88137817 C175.07965569 0.99619374 175.07965569 0.99619374 176.11647266 1.11332881 C192.43553465 3.17312256 209.44113561 10.31603717 222 21 C222.56460937 21.41121094 223.12921875 21.82242187 223.7109375 22.24609375 C234.09218018 30.16120412 240.75934355 43.17558326 243.609375 55.671875 C247.61141032 89.76921596 236.51092501 125.12456494 215.4140625 152.09375 C198.14902231 172.87884693 177.47843931 188.67357271 151.953125 197.921875 C149.39146986 198.85708243 146.93118318 199.90138433 144.4375 201 C110.81663197 214.45924539 72.52361716 213.72952471 37 212 C36.8875293 212.61818604 36.77505859 213.23637207 36.65917969 213.87329102 C35.55113003 219.71275713 34.10498715 225.29484276 32.25 230.9375 C31.71339749 232.60281813 31.17694337 234.26818409 30.640625 235.93359375 C30.36798828 236.77390137 30.09535156 237.61420898 29.81445312 238.47998047 C28.5216901 242.47995048 27.26179749 246.49017715 26 250.5 C24.50513114 255.23992317 23.00762979 259.9789624 21.5 264.71484375 C18.64049728 273.71115754 15.85748096 282.72458273 13.19287109 291.78076172 C11.85317316 296.29768621 10.40268773 300.7425578 8.80102539 305.17285156 C5.95901868 313.11692231 4.20997891 320.69186852 7.125 328.875 C9.37053943 332.61756572 11.51524141 334.40496701 15 337 C15.66 337.66 16.32 338.32 17 339 C-23.59 339 -64.18 339 -106 339 C-102 336 -102 336 -100.10546875 334.67578125 C-88.27642708 326.26776589 -83.96185327 316.49946639 -79.75390625 302.86328125 C-79.31354089 301.44275018 -78.87276584 300.02234607 -78.43164062 298.60205078 C-78.19960938 297.85449524 -77.96757812 297.1069397 -77.72851562 296.33673096 C-76.45928312 292.26563791 -75.16892464 288.20126405 -73.87890625 284.13671875 C-73.60876709 283.28518219 -73.33862793 282.43364563 -73.06030273 281.55630493 C-72.22798414 278.93328025 -71.3952725 276.3103806 -70.5625 273.6875 C-64.88315766 255.7944823 -59.20697106 237.90070373 -53.61740112 219.97940063 C-50.73933916 210.7522751 -47.8585389 201.52613039 -44.9375 192.3125 C-42.44458735 184.44817729 -40.00286185 176.56826896 -37.5625 168.6875 C-28.24436566 138.61649087 -28.24436566 138.61649087 -23.3125 123.9375 C-21.46531355 118.43805892 -19.71670236 112.91696799 -18.02734375 107.3671875 C-16.88877447 103.63545091 -15.72807435 99.91086251 -14.5625 96.1875 C-14.24732422 95.17913086 -14.24732422 95.17913086 -13.92578125 94.15039062 C-12.86988911 90.77346728 -11.81062614 87.39764728 -10.74609375 84.0234375 C-8.86435024 78.04687251 -7.00911461 72.06837676 -5.27661133 66.04663086 C-2.69961448 57.09388962 0.2012559 48.27007388 3.23364258 39.4609375 C8.35547936 24.60075432 8.35547936 24.60075432 6.8125 9.3125 C5.42110588 6.7696073 4.22937059 4.94926346 2.38671875 2.79296875 C1.59910156 1.87128906 0.81148438 0.94960938 0 0 Z " fill="#FEFEFE" transform="translate(358,425)"/>
<path d="M0 0 C1.588444 0.19740207 3.17698841 0.39399766 4.765625 0.58984375 C14.34475979 1.8365154 23.72413289 3.7209621 33.125 5.9375 C34.15584717 6.17823242 35.18669434 6.41896484 36.2487793 6.66699219 C42.754006 8.2567482 48.85618146 10.33654874 55 13 C53.77259975 19.24858311 52.03861431 25.26285014 50.10986328 31.32421875 C48.24145094 37.19832155 46.45260044 43.09406648 44.6875 49 C44.42098633 49.89114502 44.15447266 50.78229004 43.87988281 51.70043945 C43.25248928 53.80006425 42.62612782 55.89999741 42 58 C38.22030112 56.19099158 34.98337009 53.85798324 31.625 51.375 C20.17240621 43.090081 8.3226632 36.71524624 -5 32 C-6.07636719 31.58492188 -7.15273438 31.16984375 -8.26171875 30.7421875 C-24.82457494 25.2404722 -46.83786272 25.24169225 -63 32 C-64.48306641 32.5259375 -64.48306641 32.5259375 -65.99609375 33.0625 C-89.70021638 41.93998676 -109.64269823 61.63486521 -124 82 C-124.40669922 82.57298828 -124.81339844 83.14597656 -125.23242188 83.73632812 C-151.82638317 121.53211398 -167.09181493 165.94115691 -176 211 C-176.16371094 211.79728516 -176.32742188 212.59457031 -176.49609375 213.41601562 C-178.91015606 225.57610637 -179.28323845 237.64434973 -179.3125 250 C-179.31617584 250.7463974 -179.31985168 251.4927948 -179.32363892 252.2618103 C-179.37178127 270.9680753 -177.5308659 289.83577442 -164 304 C-163.39414062 304.63421875 -162.78828125 305.2684375 -162.1640625 305.921875 C-152.59998512 315.05654483 -140.3611217 318.38346872 -127.4375 318.1875 C-126.22030273 318.1865332 -126.22030273 318.1865332 -124.97851562 318.18554688 C-120.22307538 318.15100373 -115.68987843 317.78689235 -111 317 C-107.28804313 308.54438853 -104.68816114 299.77389194 -102.02667236 290.94915771 C-100.70768122 286.57757017 -99.37472457 282.21026909 -98.0390625 277.84375 C-97.77656708 276.98554657 -97.51407166 276.12734314 -97.24362183 275.24313354 C-95.14629422 268.41511307 -92.92827084 261.63660204 -90.625 254.875 C-87.850028 246.72699991 -85.38437384 238.53448034 -83.08105469 230.24145508 C-81.68769166 225.26741741 -80.15036136 220.41371538 -78.375 215.5625 C-71.63668421 198.1161784 -71.63668421 198.1161784 -72.66015625 179.84375 C-75.72533936 173.79299892 -81.72246355 169.95815233 -87 166 C-43.11 166 0.78 166 46 166 C43.2646082 167.82359454 40.52807487 169.33994945 37.625 170.875 C21.81436292 179.54802664 17.77503468 193.19722811 12.56640625 209.53515625 C12.09482841 211.00636429 12.09482841 211.00636429 11.61372375 212.5072937 C10.59413363 215.69156436 9.5780952 218.87695314 8.5625 222.0625 C8.21262024 223.1574881 7.86274048 224.2524762 7.5022583 225.38064575 C1.76514945 243.33808662 -3.86431368 261.32729391 -9.40422058 279.34648132 C-10.35772661 282.44595002 -11.31389019 285.54459102 -12.27160645 288.64276123 C-12.77240721 290.26346059 -13.27227397 291.88444876 -13.7713623 293.50567627 C-15.26395662 298.34554253 -16.78576814 303.17399426 -18.35562134 307.98937988 C-18.91479704 309.73414578 -19.43676327 311.49075291 -19.9519043 313.24902344 C-21.44829617 317.82821076 -22.75015962 320.31535556 -27.02734375 322.69921875 C-28.64789956 323.4005735 -30.28630872 324.06166697 -31.9375 324.6875 C-32.82139404 325.05141846 -33.70528809 325.41533691 -34.6159668 325.7902832 C-37.39406833 326.91078987 -40.18879838 327.96558793 -43 329 C-43.86463867 329.32097656 -44.72927734 329.64195312 -45.62011719 329.97265625 C-65.15064124 337.09634225 -85.34927871 342.47653742 -106 345 C-106.73927734 345.0942627 -107.47855469 345.18852539 -108.24023438 345.28564453 C-127.57978353 347.51009062 -147.94261563 346.96640808 -167 343 C-168.09973145 342.7831958 -168.09973145 342.7831958 -169.22167969 342.56201172 C-195.73011792 337.26853102 -222.15785557 325.7281754 -238.5625 303.375 C-250.56689729 285.27137082 -257.45841409 265.5525491 -260 244 C-260.0920874 243.26305908 -260.1841748 242.52611816 -260.27905273 241.7668457 C-262.79362842 219.70500239 -261.10185602 197.73251214 -257 176 C-256.85046875 175.16758789 -256.7009375 174.33517578 -256.546875 173.47753906 C-247.15651302 121.98270681 -217.97312498 73.33591825 -175.70019531 42.25146484 C-174.00363496 41.00267559 -172.32604025 39.73112897 -170.6484375 38.45703125 C-122.28321312 2.2599941 -58.92922732 -8.22178521 0 0 Z " fill="#FDFEFE" transform="translate(1000,423)"/>
<path d="M0 0 C1.05614502 0.01087646 2.11229004 0.02175293 3.20043945 0.03295898 C18.11231554 0.3383649 31.1136015 4.29683685 42.125 14.875 C50.11559801 23.5521759 53.48640411 32.97951944 53.0625 44.8125 C51.34330476 62.67403374 39.96078605 76.49439726 26.52490234 87.65185547 C13.41410748 98.05679679 -13.03283983 117.375 -29.9375 117.375 C-27.05078696 130.55078641 -27.05078696 130.55078641 -22.9375 143.375 C-22.34195313 144.99535156 -22.34195313 144.99535156 -21.734375 146.6484375 C-16.50493007 160.35418053 -9.83382561 173.15934947 -1.37109375 185.15234375 C0.0625 187.375 0.0625 187.375 0.0625 189.375 C0.7225 189.375 1.3825 189.375 2.0625 189.375 C2.3409375 188.66988281 2.619375 187.96476563 2.90625 187.23828125 C3.6764367 185.33102838 4.46817112 183.43233473 5.28125 181.54296875 C9.26752499 172.27001809 12.41126953 163.64760513 11.0625 153.375 C9.9737217 150.99388919 8.74191101 149.42178217 7.0625 147.375 C7.0625 146.715 7.0625 146.055 7.0625 145.375 C6.0725 145.045 5.0825 144.715 4.0625 144.375 C4.0625 144.045 4.0625 143.715 4.0625 143.375 C18.2525 143.375 32.4425 143.375 47.0625 143.375 C44.95250982 170.80487238 35.96046202 189.68797902 17.0625 209.375 C26.50742948 232.01203208 68.10078486 249.5175228 89.0625 258.375 C91.71710824 259.41375975 94.38298736 260.40118164 97.0625 261.375 C97.0625 261.705 97.0625 262.035 97.0625 262.375 C86.28319566 262.5376522 75.5041863 262.66180255 64.72390175 262.7376852 C59.717347 262.77411752 54.71163577 262.82348305 49.70556641 262.90307617 C44.86848109 262.97949562 40.0322037 263.02106541 35.194561 263.0391407 C33.35499742 263.05201074 31.51547486 263.07714334 29.67625809 263.1151104 C12.26812067 263.45996481 12.26812067 263.45996481 4.94351196 257.18815613 C4.01241104 256.29064384 4.01241104 256.29064384 3.0625 255.375 C1.79159532 254.32448336 0.51639926 253.27910491 -0.765625 252.2421875 C-1.91038805 251.24954386 -3.0511172 250.2522265 -4.1875 249.25 C-5.33821054 248.24701581 -6.48924913 247.24440786 -7.640625 246.2421875 C-8.18525391 245.76620117 -8.72988281 245.29021484 -9.29101562 244.79980469 C-11.809163 242.62069613 -14.37166122 240.49764845 -16.9375 238.375 C-18.10455892 239.02012424 -19.27109688 239.66619081 -20.4375 240.3125 C-21.26378906 240.76882813 -22.09007812 241.22515625 -22.94140625 241.6953125 C-25.12888254 242.92166818 -27.29974962 244.16511925 -29.46484375 245.4296875 C-58.32883729 262.18229631 -89.64573587 272.84652862 -123.23046875 265.41015625 C-141.02536181 260.44108706 -155.53549454 251.33735838 -165.30078125 235.33984375 C-171.25300458 224.55765399 -174.31534804 214.15745794 -174.125 201.875 C-174.12435547 201.08480469 -174.12371094 200.29460937 -174.12304688 199.48046875 C-173.96588509 178.14139143 -165.76849608 161.61219528 -151.125 146.25 C-135.45582038 131.09805543 -101.53598444 110.375 -78.9375 110.375 C-78.94797363 109.73699463 -78.95844727 109.09898926 -78.96923828 108.44165039 C-79.40923766 77.42726363 -76.12277119 47.20378605 -54.578125 23.015625 C-40.13830549 8.57580549 -20.46929701 -0.28709842 0 0 Z " fill="#FDFDFE" transform="translate(676.9375,501.625)"/>
<path d="M0 0 C34.78835537 -0.82940815 34.78835537 -0.82940815 47 9 C52.65501139 14.58018137 55.27773518 20.32929745 57 28 C57.18175781 28.59167969 57.36351562 29.18335938 57.55078125 29.79296875 C61.54055094 49.39488069 54.36469087 70.69776856 48 89 C47.59910156 90.16015625 47.19820313 91.3203125 46.78515625 92.515625 C37.29339349 118.4661683 21.43628839 141.74162747 -4 154 C-14.3972217 158.52812576 -23.9350254 160.17460679 -35.1875 160.125 C-36.07630859 160.12886719 -36.96511719 160.13273438 -37.88085938 160.13671875 C-38.73873047 160.13542969 -39.59660156 160.13414062 -40.48046875 160.1328125 C-41.25285889 160.13168457 -42.02524902 160.13055664 -42.82104492 160.12939453 C-44.99769998 160.00013658 -46.90802355 159.59889703 -49 159 C-48.43542821 153.35546484 -47.35754632 148.30661984 -45.59375 142.92578125 C-45.35310318 142.17185593 -45.11245636 141.4179306 -44.86451721 140.64115906 C-44.08272219 138.19617471 -43.29140676 135.75438815 -42.5 133.3125 C-41.67867694 130.75285495 -40.8597065 128.19246438 -40.04078674 125.63204956 C-39.48973379 123.909878 -38.93784231 122.18797453 -38.38511658 120.46633911 C-36.68544633 115.16784577 -35.01450003 109.86158355 -33.37890625 104.54296875 C-33.07894241 103.56835442 -33.07894241 103.56835442 -32.7729187 102.5740509 C-31.85519194 99.58869446 -30.94132679 96.60219959 -30.03125 93.61450195 C-28.28821791 87.94580274 -26.43000855 82.34619382 -24.41015625 76.76953125 C-22.48801763 71.45272772 -20.83040613 66.14672723 -19.375 60.6875 C-16.32385488 49.61737354 -12.65776569 38.76551297 -8.95849609 27.89916992 C-6.3502761 20.21225387 -3.93720619 12.52260799 -1.78369141 4.69311523 C-1 2 -1 2 0 0 Z " fill="#0174C5" transform="translate(454,451)"/>
<path d="M0 0 C0.19932129 0.66604248 0.39864258 1.33208496 0.60400391 2.01831055 C8.75217514 28.80422656 19.87285507 57.28084017 38 79 C36.97366671 82.19769149 36.00208204 82.99879533 33.04296875 84.7109375 C31.76595721 85.28412711 30.47994413 85.83751233 29.1875 86.375 C28.48826416 86.67027588 27.78902832 86.96555176 27.06860352 87.26977539 C9.75993548 94.32941846 -7.63013145 99.77184571 -25.9921875 93.3203125 C-36.81583286 88.56915389 -42.79346664 81.59706071 -47.375 70.875 C-50.95997779 60.12006664 -49.96450913 49.08367587 -45 39 C-38.13861162 25.40235494 -17.13480668 0 0 0 Z " fill="#0253B2" transform="translate(603,639)"/>
<path d="M0 0 C3.04569171 1.68445399 4.44748897 3.89497794 6 7 C7.62341298 22.53838137 0.74114475 34.68153332 -8.765625 46.484375 C-18.06333934 57.73090237 -28.99255175 69.86806763 -43 75 C-43.83599134 50.955603 -41.30510151 28.10254358 -25.2421875 8.8984375 C-17.74568655 0.9985374 -10.98161654 -1.71497686 0 0 Z " fill="#035CB8" transform="translate(685,521)"/>
</svg>
